<?xml version="1.0" standalone="no"?><!DOCTYPE svg PUBLIC "-//W3C//DTD SVG 1.1//EN" "http://www.w3.org/Graphics/SVG/1.1/DTD/svg11.dtd"><svg t="1728907802295" class="icon" viewBox="0 0 1024 1024" version="1.1" xmlns="http://www.w3.org/2000/svg" p-id="6981" xmlns:xlink="http://www.w3.org/1999/xlink" width="200" height="200"><path d="M511.8 593.9C383.4 593.9 279 489.5 279 361.1c0-128.3 104.5-232.8 232.9-232.8s232.9 104.4 232.9 232.8c-0.1 128.4-104.6 232.8-233 232.8z m0-402.3c-93.5 0-169.6 76.1-169.6 169.6s76.1 169.6 169.6 169.6 169.6-76.1 169.6-169.6-76.1-169.6-169.6-169.6z" fill="#A8A8A8" p-id="6982"></path><path d="M813.7 895.7c-17.4 0-31.6-14.2-31.6-31.6 0-149-121.2-270.2-270.2-270.2S241.7 715.1 241.7 864.1c0 17.4-14.2 31.6-31.6 31.6s-31.6-14.2-31.6-31.6c0-183.9 149.6-333.4 333.4-333.4 183.9 0 333.4 149.6 333.4 333.4 0 17.4-14.2 31.6-31.6 31.6z" fill="#A8A8A8" p-id="6983"></path></svg>